<mxfile host="app.diagrams.net" modified="2021-09-07T03:26:51.797Z" agent="5.0 (Macintosh; Intel Mac OS X 10_14_6) AppleWebKit/537.36 (KHTML, like Gecko) Chrome/90.0.4430.72 Safari/537.36" etag="OdoosakxPfntYcyF8s_v" version="14.7.5" type="github" pages="2">
  <diagram id="3vPl9tEi9gLSfXHcFcfi" name="Page-1">
    <mxGraphModel dx="1389" dy="793" grid="0" gridSize="10" guides="1" tooltips="1" connect="1" arrows="1" fold="1" page="1" pageScale="1" pageWidth="1169" pageHeight="827" background="none" math="0" shadow="1">
      <root>
        <mxCell id="0" />
        <mxCell id="1" parent="0" />
        <mxCell id="UVBlZkc1M1v_ybtA0lxi-1" value="prometheus sdk" style="rounded=0;whiteSpace=wrap;html=1;" vertex="1" parent="1">
          <mxGeometry x="160" y="200" width="120" height="60" as="geometry" />
        </mxCell>
        <mxCell id="UVBlZkc1M1v_ybtA0lxi-2" value="statsd sdk" style="whiteSpace=wrap;html=1;" vertex="1" parent="1">
          <mxGeometry x="160" y="290" width="120" height="60" as="geometry" />
        </mxCell>
        <mxCell id="UVBlZkc1M1v_ybtA0lxi-3" value="自研tccm sdk" style="whiteSpace=wrap;html=1;" vertex="1" parent="1">
          <mxGeometry x="160" y="120" width="120" height="60" as="geometry" />
        </mxCell>
        <mxCell id="UVBlZkc1M1v_ybtA0lxi-4" value="kafka" style="whiteSpace=wrap;html=1;" vertex="1" parent="1">
          <mxGeometry x="160" y="470" width="120" height="60" as="geometry" />
        </mxCell>
        <mxCell id="UVBlZkc1M1v_ybtA0lxi-5" value="influxdb sdk" style="whiteSpace=wrap;html=1;" vertex="1" parent="1">
          <mxGeometry x="160" y="383.5" width="120" height="60" as="geometry" />
        </mxCell>
        <mxCell id="UVBlZkc1M1v_ybtA0lxi-6" value="..." style="whiteSpace=wrap;html=1;" vertex="1" parent="1">
          <mxGeometry x="160" y="560" width="120" height="60" as="geometry" />
        </mxCell>
        <mxCell id="UVBlZkc1M1v_ybtA0lxi-7" value="tencentcloud_cloudmonitor_agent" style="rounded=1;whiteSpace=wrap;html=1;" vertex="1" parent="1">
          <mxGeometry x="510" y="300" width="220" height="96.5" as="geometry" />
        </mxCell>
        <mxCell id="UVBlZkc1M1v_ybtA0lxi-8" value="" style="endArrow=classic;html=1;" edge="1" parent="1">
          <mxGeometry width="50" height="50" relative="1" as="geometry">
            <mxPoint x="280" y="150" as="sourcePoint" />
            <mxPoint x="510" y="310" as="targetPoint" />
          </mxGeometry>
        </mxCell>
        <mxCell id="UVBlZkc1M1v_ybtA0lxi-10" value="" style="endArrow=classic;html=1;exitX=1;exitY=0.5;exitDx=0;exitDy=0;entryX=0;entryY=0.5;entryDx=0;entryDy=0;" edge="1" parent="1" source="UVBlZkc1M1v_ybtA0lxi-2" target="UVBlZkc1M1v_ybtA0lxi-7">
          <mxGeometry width="50" height="50" relative="1" as="geometry">
            <mxPoint x="280" y="370" as="sourcePoint" />
            <mxPoint x="520" y="350" as="targetPoint" />
            <Array as="points" />
          </mxGeometry>
        </mxCell>
        <mxCell id="UVBlZkc1M1v_ybtA0lxi-11" value="" style="endArrow=classic;html=1;exitX=1;exitY=0.5;exitDx=0;exitDy=0;entryX=-0.008;entryY=0.617;entryDx=0;entryDy=0;entryPerimeter=0;" edge="1" parent="1" source="UVBlZkc1M1v_ybtA0lxi-5" target="UVBlZkc1M1v_ybtA0lxi-7">
          <mxGeometry width="50" height="50" relative="1" as="geometry">
            <mxPoint x="540" y="460" as="sourcePoint" />
            <mxPoint x="590" y="410" as="targetPoint" />
            <Array as="points" />
          </mxGeometry>
        </mxCell>
        <mxCell id="UVBlZkc1M1v_ybtA0lxi-13" value="" style="endArrow=classic;html=1;exitX=1;exitY=0.5;exitDx=0;exitDy=0;entryX=0.018;entryY=0.943;entryDx=0;entryDy=0;entryPerimeter=0;" edge="1" parent="1" source="UVBlZkc1M1v_ybtA0lxi-6" target="UVBlZkc1M1v_ybtA0lxi-7">
          <mxGeometry width="50" height="50" relative="1" as="geometry">
            <mxPoint x="340" y="560" as="sourcePoint" />
            <mxPoint x="520" y="390" as="targetPoint" />
          </mxGeometry>
        </mxCell>
        <mxCell id="UVBlZkc1M1v_ybtA0lxi-15" value="push" style="text;html=1;strokeColor=none;fillColor=none;align=center;verticalAlign=middle;whiteSpace=wrap;rounded=0;rotation=30;" vertex="1" parent="1">
          <mxGeometry x="370" y="190" width="40" height="20" as="geometry" />
        </mxCell>
        <mxCell id="UVBlZkc1M1v_ybtA0lxi-16" value="push/pull" style="text;html=1;align=center;verticalAlign=middle;resizable=0;points=[];autosize=1;strokeColor=none;rotation=20;" vertex="1" parent="1">
          <mxGeometry x="320" y="230" width="60" height="20" as="geometry" />
        </mxCell>
        <mxCell id="UVBlZkc1M1v_ybtA0lxi-17" value="push" style="text;html=1;align=center;verticalAlign=middle;resizable=0;points=[];autosize=1;strokeColor=none;rotation=15;" vertex="1" parent="1">
          <mxGeometry x="320" y="300" width="40" height="20" as="geometry" />
        </mxCell>
        <mxCell id="UVBlZkc1M1v_ybtA0lxi-18" value="push" style="text;html=1;align=center;verticalAlign=middle;resizable=0;points=[];autosize=1;strokeColor=none;rotation=-15;" vertex="1" parent="1">
          <mxGeometry x="320" y="370" width="40" height="20" as="geometry" />
        </mxCell>
        <mxCell id="UVBlZkc1M1v_ybtA0lxi-19" value="pull" style="text;html=1;align=center;verticalAlign=middle;resizable=0;points=[];autosize=1;strokeColor=none;rotation=-30;" vertex="1" parent="1">
          <mxGeometry x="335" y="430" width="30" height="20" as="geometry" />
        </mxCell>
        <mxCell id="UVBlZkc1M1v_ybtA0lxi-20" value="" style="endArrow=classic;html=1;entryX=1;entryY=0.5;entryDx=0;entryDy=0;exitX=0;exitY=0.75;exitDx=0;exitDy=0;" edge="1" parent="1" source="UVBlZkc1M1v_ybtA0lxi-7" target="UVBlZkc1M1v_ybtA0lxi-4">
          <mxGeometry width="50" height="50" relative="1" as="geometry">
            <mxPoint x="540" y="460" as="sourcePoint" />
            <mxPoint x="590" y="410" as="targetPoint" />
          </mxGeometry>
        </mxCell>
        <mxCell id="UVBlZkc1M1v_ybtA0lxi-21" value="" style="endArrow=classic;startArrow=classic;html=1;entryX=0;entryY=0.25;entryDx=0;entryDy=0;exitX=1;exitY=0.5;exitDx=0;exitDy=0;" edge="1" parent="1" source="UVBlZkc1M1v_ybtA0lxi-1" target="UVBlZkc1M1v_ybtA0lxi-7">
          <mxGeometry width="50" height="50" relative="1" as="geometry">
            <mxPoint x="540" y="460" as="sourcePoint" />
            <mxPoint x="590" y="410" as="targetPoint" />
          </mxGeometry>
        </mxCell>
        <mxCell id="UVBlZkc1M1v_ybtA0lxi-22" value="云监控中台" style="ellipse;whiteSpace=wrap;html=1;" vertex="1" parent="1">
          <mxGeometry x="890" y="310" width="250" height="80" as="geometry" />
        </mxCell>
        <mxCell id="UVBlZkc1M1v_ybtA0lxi-24" value="" style="shape=flexArrow;endArrow=classic;html=1;entryX=0;entryY=0.5;entryDx=0;entryDy=0;exitX=1;exitY=0.5;exitDx=0;exitDy=0;" edge="1" parent="1" source="UVBlZkc1M1v_ybtA0lxi-7" target="UVBlZkc1M1v_ybtA0lxi-22">
          <mxGeometry width="50" height="50" relative="1" as="geometry">
            <mxPoint x="700" y="500" as="sourcePoint" />
            <mxPoint x="750" y="450" as="targetPoint" />
          </mxGeometry>
        </mxCell>
      </root>
    </mxGraphModel>
  </diagram>
  <diagram id="FhaBUAr7-Iv6ZhEeP_gs" name="Page-2">
    <mxGraphModel dx="1389" dy="793" grid="0" gridSize="10" guides="1" tooltips="1" connect="1" arrows="1" fold="1" page="1" pageScale="1" pageWidth="1390" pageHeight="980" math="0" shadow="0">
      <root>
        <mxCell id="3GbE_9hwmdBItGfE9NGu-0" />
        <mxCell id="3GbE_9hwmdBItGfE9NGu-1" parent="3GbE_9hwmdBItGfE9NGu-0" />
        <mxCell id="3GbE_9hwmdBItGfE9NGu-2" value="&lt;font style=&quot;font-size: 36px&quot;&gt;&lt;font style=&quot;vertical-align: inherit&quot;&gt;&lt;font style=&quot;vertical-align: inherit&quot;&gt;&lt;font style=&quot;vertical-align: inherit&quot;&gt;&lt;font style=&quot;vertical-align: inherit&quot;&gt;&lt;font style=&quot;vertical-align: inherit&quot;&gt;&lt;font color=&quot;#00cccc&quot; style=&quot;vertical-align: inherit&quot;&gt;Monitoring&lt;br&gt;System&lt;br&gt;&lt;/font&gt;&lt;/font&gt;&lt;/font&gt;&lt;/font&gt;&lt;/font&gt;&lt;/font&gt;&lt;/font&gt;" style="whiteSpace=wrap;html=1;aspect=fixed;" vertex="1" parent="3GbE_9hwmdBItGfE9NGu-1">
          <mxGeometry x="31" y="309" width="183" height="183" as="geometry" />
        </mxCell>
        <mxCell id="3GbE_9hwmdBItGfE9NGu-3" value="&lt;font style=&quot;font-size: 36px&quot; color=&quot;#ff9933&quot;&gt;APP&lt;/font&gt;" style="whiteSpace=wrap;html=1;" vertex="1" parent="3GbE_9hwmdBItGfE9NGu-1">
          <mxGeometry x="434" y="305" width="179" height="66" as="geometry" />
        </mxCell>
        <mxCell id="3GbE_9hwmdBItGfE9NGu-4" value="&lt;font style=&quot;font-size: 36px&quot; color=&quot;#ff9933&quot;&gt;APP&lt;/font&gt;" style="whiteSpace=wrap;html=1;" vertex="1" parent="3GbE_9hwmdBItGfE9NGu-1">
          <mxGeometry x="434" y="429" width="179" height="63" as="geometry" />
        </mxCell>
        <mxCell id="3GbE_9hwmdBItGfE9NGu-5" value="" style="endArrow=classic;html=1;exitX=1;exitY=0.12;exitDx=0;exitDy=0;exitPerimeter=0;entryX=-0.011;entryY=0.379;entryDx=0;entryDy=0;entryPerimeter=0;" edge="1" parent="3GbE_9hwmdBItGfE9NGu-1" source="3GbE_9hwmdBItGfE9NGu-2" target="3GbE_9hwmdBItGfE9NGu-3">
          <mxGeometry width="50" height="50" relative="1" as="geometry">
            <mxPoint x="437" y="580" as="sourcePoint" />
            <mxPoint x="386" y="372" as="targetPoint" />
          </mxGeometry>
        </mxCell>
        <mxCell id="3GbE_9hwmdBItGfE9NGu-6" value="" style="endArrow=classic;html=1;entryX=1;entryY=0.25;entryDx=0;entryDy=0;exitX=0;exitY=0.75;exitDx=0;exitDy=0;" edge="1" parent="3GbE_9hwmdBItGfE9NGu-1" source="3GbE_9hwmdBItGfE9NGu-3" target="3GbE_9hwmdBItGfE9NGu-2">
          <mxGeometry width="50" height="50" relative="1" as="geometry">
            <mxPoint x="367" y="450" as="sourcePoint" />
            <mxPoint x="282" y="427" as="targetPoint" />
          </mxGeometry>
        </mxCell>
        <mxCell id="3GbE_9hwmdBItGfE9NGu-7" value="" style="endArrow=classic;html=1;entryX=0;entryY=0.25;entryDx=0;entryDy=0;exitX=1;exitY=0.75;exitDx=0;exitDy=0;" edge="1" parent="3GbE_9hwmdBItGfE9NGu-1" source="3GbE_9hwmdBItGfE9NGu-2" target="3GbE_9hwmdBItGfE9NGu-4">
          <mxGeometry width="50" height="50" relative="1" as="geometry">
            <mxPoint x="288" y="512" as="sourcePoint" />
            <mxPoint x="350" y="588" as="targetPoint" />
          </mxGeometry>
        </mxCell>
        <mxCell id="3GbE_9hwmdBItGfE9NGu-8" value="" style="endArrow=classic;html=1;entryX=1.011;entryY=0.913;entryDx=0;entryDy=0;entryPerimeter=0;exitX=0;exitY=0.75;exitDx=0;exitDy=0;" edge="1" parent="3GbE_9hwmdBItGfE9NGu-1" source="3GbE_9hwmdBItGfE9NGu-4" target="3GbE_9hwmdBItGfE9NGu-2">
          <mxGeometry width="50" height="50" relative="1" as="geometry">
            <mxPoint x="368" y="643" as="sourcePoint" />
            <mxPoint x="418" y="593" as="targetPoint" />
            <Array as="points" />
          </mxGeometry>
        </mxCell>
        <mxCell id="3GbE_9hwmdBItGfE9NGu-9" value="&lt;font style=&quot;font-size: 18px&quot;&gt;pull&lt;/font&gt;" style="text;html=1;align=center;verticalAlign=middle;resizable=0;points=[];autosize=1;strokeColor=none;" vertex="1" parent="3GbE_9hwmdBItGfE9NGu-1">
          <mxGeometry x="305" y="305" width="38" height="20" as="geometry" />
        </mxCell>
        <mxCell id="3GbE_9hwmdBItGfE9NGu-10" value="&lt;font style=&quot;font-size: 18px&quot;&gt;metrics&lt;/font&gt;" style="text;html=1;align=center;verticalAlign=middle;resizable=0;points=[];autosize=1;strokeColor=none;" vertex="1" parent="3GbE_9hwmdBItGfE9NGu-1">
          <mxGeometry x="290" y="364" width="68" height="20" as="geometry" />
        </mxCell>
        <mxCell id="3GbE_9hwmdBItGfE9NGu-11" value="&lt;font style=&quot;font-size: 18px&quot;&gt;pull&lt;/font&gt;" style="text;html=1;align=center;verticalAlign=middle;resizable=0;points=[];autosize=1;strokeColor=none;" vertex="1" parent="3GbE_9hwmdBItGfE9NGu-1">
          <mxGeometry x="305" y="423" width="38" height="20" as="geometry" />
        </mxCell>
        <mxCell id="3GbE_9hwmdBItGfE9NGu-12" value="&lt;font style=&quot;font-size: 18px&quot;&gt;metrics&lt;/font&gt;" style="text;html=1;align=center;verticalAlign=middle;resizable=0;points=[];autosize=1;strokeColor=none;" vertex="1" parent="3GbE_9hwmdBItGfE9NGu-1">
          <mxGeometry x="290" y="482" width="68" height="20" as="geometry" />
        </mxCell>
        <mxCell id="3GbE_9hwmdBItGfE9NGu-13" value="&lt;font style=&quot;font-size: 36px&quot; color=&quot;#3333ff&quot;&gt;pull-based system&lt;/font&gt;" style="text;html=1;strokeColor=none;fillColor=none;align=center;verticalAlign=middle;whiteSpace=wrap;rounded=0;" vertex="1" parent="3GbE_9hwmdBItGfE9NGu-1">
          <mxGeometry x="31" y="210" width="318" height="67" as="geometry" />
        </mxCell>
        <mxCell id="3GbE_9hwmdBItGfE9NGu-14" value="&lt;font style=&quot;font-size: 36px&quot; color=&quot;#ff9933&quot;&gt;APP&lt;/font&gt;" style="whiteSpace=wrap;html=1;" vertex="1" parent="3GbE_9hwmdBItGfE9NGu-1">
          <mxGeometry x="678" y="309" width="179" height="66" as="geometry" />
        </mxCell>
        <mxCell id="3GbE_9hwmdBItGfE9NGu-15" value="&lt;font style=&quot;font-size: 36px&quot; color=&quot;#ff9933&quot;&gt;APP&lt;/font&gt;" style="whiteSpace=wrap;html=1;" vertex="1" parent="3GbE_9hwmdBItGfE9NGu-1">
          <mxGeometry x="676" y="420" width="179" height="66" as="geometry" />
        </mxCell>
        <mxCell id="3GbE_9hwmdBItGfE9NGu-16" value="&lt;font style=&quot;font-size: 36px&quot;&gt;&lt;font style=&quot;vertical-align: inherit&quot;&gt;&lt;font style=&quot;vertical-align: inherit&quot;&gt;&lt;font style=&quot;vertical-align: inherit&quot;&gt;&lt;font style=&quot;vertical-align: inherit&quot;&gt;&lt;font style=&quot;vertical-align: inherit&quot;&gt;&lt;font color=&quot;#00cccc&quot; style=&quot;vertical-align: inherit&quot;&gt;Monitoring&lt;br&gt;System&lt;br&gt;&lt;/font&gt;&lt;/font&gt;&lt;/font&gt;&lt;/font&gt;&lt;/font&gt;&lt;/font&gt;&lt;/font&gt;" style="whiteSpace=wrap;html=1;aspect=fixed;" vertex="1" parent="3GbE_9hwmdBItGfE9NGu-1">
          <mxGeometry x="1081" y="309" width="183" height="183" as="geometry" />
        </mxCell>
        <mxCell id="3GbE_9hwmdBItGfE9NGu-17" value="" style="endArrow=classic;html=1;exitX=1;exitY=0.25;exitDx=0;exitDy=0;entryX=0.005;entryY=0.104;entryDx=0;entryDy=0;entryPerimeter=0;" edge="1" parent="3GbE_9hwmdBItGfE9NGu-1" source="3GbE_9hwmdBItGfE9NGu-14" target="3GbE_9hwmdBItGfE9NGu-16">
          <mxGeometry width="50" height="50" relative="1" as="geometry">
            <mxPoint x="880" y="369" as="sourcePoint" />
            <mxPoint x="1083" y="342" as="targetPoint" />
            <Array as="points" />
          </mxGeometry>
        </mxCell>
        <mxCell id="3GbE_9hwmdBItGfE9NGu-18" value="" style="endArrow=classic;html=1;exitX=1;exitY=0.25;exitDx=0;exitDy=0;entryX=-0.011;entryY=0.699;entryDx=0;entryDy=0;entryPerimeter=0;" edge="1" parent="3GbE_9hwmdBItGfE9NGu-1" source="3GbE_9hwmdBItGfE9NGu-15" target="3GbE_9hwmdBItGfE9NGu-16">
          <mxGeometry width="50" height="50" relative="1" as="geometry">
            <mxPoint x="924" y="485" as="sourcePoint" />
            <mxPoint x="1084" y="453" as="targetPoint" />
          </mxGeometry>
        </mxCell>
        <mxCell id="3GbE_9hwmdBItGfE9NGu-19" value="" style="endArrow=classic;html=1;exitX=1;exitY=0.5;exitDx=0;exitDy=0;" edge="1" parent="3GbE_9hwmdBItGfE9NGu-1">
          <mxGeometry width="50" height="50" relative="1" as="geometry">
            <mxPoint x="858" y="367" as="sourcePoint" />
            <mxPoint x="1084" y="367" as="targetPoint" />
          </mxGeometry>
        </mxCell>
        <mxCell id="3GbE_9hwmdBItGfE9NGu-20" value="" style="endArrow=classic;html=1;entryX=0;entryY=0.88;entryDx=0;entryDy=0;entryPerimeter=0;" edge="1" parent="3GbE_9hwmdBItGfE9NGu-1" target="3GbE_9hwmdBItGfE9NGu-16">
          <mxGeometry width="50" height="50" relative="1" as="geometry">
            <mxPoint x="856" y="470" as="sourcePoint" />
            <mxPoint x="1103" y="362" as="targetPoint" />
          </mxGeometry>
        </mxCell>
        <mxCell id="3GbE_9hwmdBItGfE9NGu-21" value="&lt;font style=&quot;font-size: 18px&quot;&gt;push&lt;/font&gt;" style="text;html=1;align=center;verticalAlign=middle;resizable=0;points=[];autosize=1;strokeColor=none;" vertex="1" parent="3GbE_9hwmdBItGfE9NGu-1">
          <mxGeometry x="935" y="296" width="49" height="20" as="geometry" />
        </mxCell>
        <mxCell id="3GbE_9hwmdBItGfE9NGu-22" value="&lt;font style=&quot;font-size: 18px&quot;&gt;push&lt;/font&gt;" style="text;html=1;align=center;verticalAlign=middle;resizable=0;points=[];autosize=1;strokeColor=none;" vertex="1" parent="3GbE_9hwmdBItGfE9NGu-1">
          <mxGeometry x="937" y="341" width="49" height="20" as="geometry" />
        </mxCell>
        <mxCell id="3GbE_9hwmdBItGfE9NGu-23" value="&lt;font style=&quot;font-size: 18px&quot;&gt;push&lt;/font&gt;" style="text;html=1;align=center;verticalAlign=middle;resizable=0;points=[];autosize=1;strokeColor=none;" vertex="1" parent="3GbE_9hwmdBItGfE9NGu-1">
          <mxGeometry x="939" y="410" width="49" height="20" as="geometry" />
        </mxCell>
        <mxCell id="3GbE_9hwmdBItGfE9NGu-24" value="&lt;font style=&quot;font-size: 18px&quot;&gt;push&lt;/font&gt;" style="text;html=1;align=center;verticalAlign=middle;resizable=0;points=[];autosize=1;strokeColor=none;" vertex="1" parent="3GbE_9hwmdBItGfE9NGu-1">
          <mxGeometry x="939" y="446" width="49" height="20" as="geometry" />
        </mxCell>
        <mxCell id="3GbE_9hwmdBItGfE9NGu-25" value="&lt;font style=&quot;font-size: 36px&quot; color=&quot;#3333ff&quot;&gt;pull-based system&lt;/font&gt;" style="text;html=1;strokeColor=none;fillColor=none;align=center;verticalAlign=middle;whiteSpace=wrap;rounded=0;" vertex="1" parent="3GbE_9hwmdBItGfE9NGu-1">
          <mxGeometry x="678" y="224" width="318" height="67" as="geometry" />
        </mxCell>
      </root>
    </mxGraphModel>
  </diagram>
</mxfile>
